#Comment line ignore any data following # character 
#Hierarchical Translation and Rotation (.htr) file 
[Header]	
#Header keywords are followed by a single value 
FileType HTR		#Single word string
DataType HTRS		#Translation followed by rotation and scale data
FileVersion 1		#integer
NumSegments 84		#integer
NumFrames 2		#integer
DataFrameRate 30		#integer, data frame rate in this file
EulerRotationOrder ZYX
CalibrationUnits mm
RotationUnits Degrees
GlobalAxisofGravity Y
BoneLengthAxis Y
ScaleFactor 1.00
[SegmentNames&Hierarchy]
#CHILD	PARENT
MASTER GLOBAL
root MASTER
chest root
L_mid_tent01 root
R_mid_tent01 root
spine01 root
Bip01_Neck chest
L_humerus chest
R_humerus chest
weapon_bone chest
Bip01_Head Bip01_Neck
eye_left_bone Bip01_Head
eye_right_bone Bip01_Head
L_forearm L_humerus
L_front_hand L_forearm
L_weapon_bone L_forearm
L_front_hand01_01 L_front_hand
L_front_hand02_01 L_front_hand
L_front_hand03_01 L_front_hand
L_front_hand01_02 L_front_hand01_01
L_front_hand02_02 L_front_hand02_01
L_front_hand03_02 L_front_hand03_01
R_forearm R_humerus
R_front_hand R_forearm
R_weapon_bone R_forearm
R_front_hand01_01 R_front_hand
R_front_hand02_01 R_front_hand
R_front_hand03_01 R_front_hand
R_front_hand01_02 R_front_hand01_01
R_front_hand02_02 R_front_hand02_01
R_front_hand03_02 R_front_hand03_01
null_rope01_connect L_mid_tent01
Rope1_Seg01 null_rope01_connect
Rope1_Seg02 Rope1_Seg01
Rope1_Seg03 Rope1_Seg02
Rope1_Seg04 Rope1_Seg03
Rope1_Seg05 Rope1_Seg04
Rope1_Seg06 Rope1_Seg05
Rope1_Seg07 Rope1_Seg06
Rope1_Seg09 Rope1_Seg07
L_mid_hand01 Rope1_Seg09
L_mid_hand02 Rope1_Seg09
L_mid_hand03 Rope1_Seg09
null_rope02_connect R_mid_tent01
Rope2_Seg01 null_rope02_connect
Rope2_Seg02 Rope2_Seg01
Rope2_Seg03 Rope2_Seg02
Rope2_Seg04 Rope2_Seg03
Rope2_Seg05 Rope2_Seg04
Rope2_Seg06 Rope2_Seg05
Rope2_Seg07 Rope2_Seg06
Rope2_Seg09 Rope2_Seg07
R_mid_hand01 Rope2_Seg09
R_mid_hand02 Rope2_Seg09
R_mid_hand03 Rope2_Seg09
spine02 spine01
spine03 spine02
pelvis spine03
null_rope03_connect pelvis
null_rope04_connect pelvis
Rope3_Seg01 null_rope03_connect
Rope3_Seg02 Rope3_Seg01
Rope3_Seg03 Rope3_Seg02
Rope3_Seg04 Rope3_Seg03
Rope3_Seg05 Rope3_Seg04
Rope3_Seg06 Rope3_Seg05
Rope3_Seg07 Rope3_Seg06
Rope3_Seg08 Rope3_Seg07
Rope3_Seg09 Rope3_Seg08
R_rear_hand01 Rope3_Seg09
R_rear_hand02 Rope3_Seg09
R_rear_hand03 Rope3_Seg09
Rope4_Seg01 null_rope04_connect
Rope4_Seg02 Rope4_Seg01
Rope4_Seg03 Rope4_Seg02
Rope4_Seg04 Rope4_Seg03
Rope4_Seg05 Rope4_Seg04
Rope4_Seg06 Rope4_Seg05
Rope4_Seg07 Rope4_Seg06
Rope4_Seg08 Rope4_Seg07
Rope4_Seg09 Rope4_Seg08
L_rear_hand01 Rope4_Seg09
L_rear_hand02 Rope4_Seg09
L_rear_hand03 Rope4_Seg09
[BasePosition]
#SegmentName Tx, Ty, Tz, Rx, Ry, Rz, BoneLength
MASTER 0.000000 0.000000 0.000000 -90.000000 0.000000 0.000000 10.000000 
root 0.000000 0.000000 0.000000 0.000000 0.000000 0.000000 10.000000 
chest 0.000000 0.000000 0.000000 0.000000 0.000000 0.000000 10.000000 
L_mid_tent01 0.000000 0.000000 0.000000 0.000000 0.000000 0.000000 10.000000 
R_mid_tent01 0.000000 0.000000 0.000000 0.000000 0.000000 0.000000 10.000000 
spine01 0.000000 0.000000 0.000000 0.000000 0.000000 0.000000 10.000000 
Bip01_Neck 0.000000 0.000000 0.000000 0.000000 0.000000 0.000000 10.000000 
L_humerus 0.000000 0.000000 0.000000 0.000000 0.000000 0.000000 10.000000 
R_humerus 0.000000 0.000000 0.000000 0.000000 0.000000 0.000000 10.000000 
weapon_bone 0.000000 0.000000 0.000000 0.000000 0.000000 0.000000 10.000000 
Bip01_Head 0.000000 0.000000 0.000000 0.000000 0.000000 0.000000 10.000000 
eye_left_bone 0.000000 0.000000 0.000000 0.000000 0.000000 0.000000 10.000000 
eye_right_bone 0.000000 0.000000 0.000000 0.000000 0.000000 0.000000 10.000000 
L_forearm 0.000000 0.000000 0.000000 0.000000 0.000000 0.000000 10.000000 
L_front_hand 0.000000 0.000000 0.000000 0.000000 0.000000 0.000000 10.000000 
L_weapon_bone 0.000000 0.000000 0.000000 0.000000 0.000000 0.000000 10.000000 
L_front_hand01_01 0.000000 0.000000 0.000000 0.000000 0.000000 0.000000 10.000000 
L_front_hand02_01 0.000000 0.000000 0.000000 0.000000 0.000000 0.000000 10.000000 
L_front_hand03_01 0.000000 0.000000 0.000000 0.000000 0.000000 0.000000 10.000000 
L_front_hand01_02 0.000000 0.000000 0.000000 0.000000 0.000000 0.000000 10.000000 
L_front_hand02_02 0.000000 0.000000 0.000000 0.000000 0.000000 0.000000 10.000000 
L_front_hand03_02 0.000000 0.000000 0.000000 0.000000 0.000000 0.000000 10.000000 
R_forearm 0.000000 0.000000 0.000000 0.000000 0.000000 0.000000 10.000000 
R_front_hand 0.000000 0.000000 0.000000 0.000000 0.000000 0.000000 10.000000 
R_weapon_bone 0.000000 0.000000 0.000000 0.000000 0.000000 0.000000 10.000000 
R_front_hand01_01 0.000000 0.000000 0.000000 0.000000 0.000000 0.000000 10.000000 
R_front_hand02_01 0.000000 0.000000 0.000000 0.000000 0.000000 0.000000 10.000000 
R_front_hand03_01 0.000000 0.000000 0.000000 0.000000 0.000000 0.000000 10.000000 
R_front_hand01_02 0.000000 0.000000 0.000000 0.000000 0.000000 0.000000 10.000000 
R_front_hand02_02 0.000000 0.000000 0.000000 0.000000 0.000000 0.000000 10.000000 
R_front_hand03_02 0.000000 0.000000 0.000000 0.000000 0.000000 0.000000 10.000000 
null_rope01_connect 0.000000 0.000000 0.000000 0.000000 0.000000 0.000000 10.000000 
Rope1_Seg01 0.000000 0.000000 0.000000 0.000000 0.000000 0.000000 10.000000 
Rope1_Seg02 0.000000 0.000000 0.000000 0.000000 0.000000 0.000000 10.000000 
Rope1_Seg03 0.000000 0.000000 0.000000 0.000000 0.000000 0.000000 10.000000 
Rope1_Seg04 0.000000 0.000000 0.000000 0.000000 0.000000 0.000000 10.000000 
Rope1_Seg05 0.000000 0.000000 0.000000 0.000000 0.000000 0.000000 10.000000 
Rope1_Seg06 0.000000 0.000000 0.000000 0.000000 0.000000 0.000000 10.000000 
Rope1_Seg07 0.000000 0.000000 0.000000 0.000000 0.000000 0.000000 10.000000 
Rope1_Seg09 0.000000 0.000000 0.000000 0.000000 0.000000 0.000000 10.000000 
L_mid_hand01 0.000000 0.000000 0.000000 0.000000 0.000000 0.000000 10.000000 
L_mid_hand02 0.000000 0.000000 0.000000 0.000000 0.000000 0.000000 10.000000 
L_mid_hand03 0.000000 0.000000 0.000000 0.000000 0.000000 0.000000 10.000000 
null_rope02_connect 0.000000 0.000000 0.000000 0.000000 0.000000 0.000000 10.000000 
Rope2_Seg01 0.000000 0.000000 0.000000 0.000000 0.000000 0.000000 10.000000 
Rope2_Seg02 0.000000 0.000000 0.000000 0.000000 0.000000 0.000000 10.000000 
Rope2_Seg03 0.000000 0.000000 0.000000 0.000000 0.000000 0.000000 10.000000 
Rope2_Seg04 0.000000 0.000000 0.000000 0.000000 0.000000 0.000000 10.000000 
Rope2_Seg05 0.000000 0.000000 0.000000 0.000000 0.000000 0.000000 10.000000 
Rope2_Seg06 0.000000 0.000000 0.000000 0.000000 0.000000 0.000000 10.000000 
Rope2_Seg07 0.000000 0.000000 0.000000 0.000000 0.000000 0.000000 10.000000 
Rope2_Seg09 0.000000 0.000000 0.000000 0.000000 0.000000 0.000000 10.000000 
R_mid_hand01 0.000000 0.000000 0.000000 0.000000 0.000000 0.000000 10.000000 
R_mid_hand02 0.000000 0.000000 0.000000 0.000000 0.000000 0.000000 10.000000 
R_mid_hand03 0.000000 0.000000 0.000000 0.000000 0.000000 0.000000 10.000000 
spine02 0.000000 0.000000 0.000000 0.000000 0.000000 0.000000 10.000000 
spine03 0.000000 0.000000 0.000000 0.000000 0.000000 0.000000 10.000000 
pelvis 0.000000 0.000000 0.000000 0.000000 0.000000 0.000000 10.000000 
null_rope03_connect 0.000000 0.000000 0.000000 0.000000 0.000000 0.000000 10.000000 
null_rope04_connect 0.000000 0.000000 0.000000 0.000000 0.000000 0.000000 10.000000 
Rope3_Seg01 0.000000 0.000000 0.000000 0.000000 0.000000 0.000000 10.000000 
Rope3_Seg02 0.000000 0.000000 0.000000 0.000000 0.000000 0.000000 10.000000 
Rope3_Seg03 0.000000 0.000000 0.000000 0.000000 0.000000 0.000000 10.000000 
Rope3_Seg04 0.000000 0.000000 0.000000 0.000000 0.000000 0.000000 10.000000 
Rope3_Seg05 0.000000 0.000000 0.000000 0.000000 0.000000 0.000000 10.000000 
Rope3_Seg06 0.000000 0.000000 0.000000 0.000000 0.000000 0.000000 10.000000 
Rope3_Seg07 0.000000 0.000000 0.000000 0.000000 0.000000 0.000000 10.000000 
Rope3_Seg08 0.000000 0.000000 0.000000 0.000000 0.000000 0.000000 10.000000 
Rope3_Seg09 0.000000 0.000000 0.000000 0.000000 0.000000 0.000000 10.000000 
R_rear_hand01 0.000000 0.000000 0.000000 0.000000 0.000000 0.000000 10.000000 
R_rear_hand02 0.000000 0.000000 0.000000 0.000000 0.000000 0.000000 10.000000 
R_rear_hand03 0.000000 0.000000 0.000000 0.000000 0.000000 0.000000 10.000000 
Rope4_Seg01 0.000000 0.000000 0.000000 0.000000 0.000000 0.000000 10.000000 
Rope4_Seg02 0.000000 0.000000 0.000000 0.000000 0.000000 0.000000 10.000000 
Rope4_Seg03 0.000000 0.000000 0.000000 0.000000 0.000000 0.000000 10.000000 
Rope4_Seg04 0.000000 0.000000 0.000000 0.000000 0.000000 0.000000 10.000000 
Rope4_Seg05 0.000000 0.000000 0.000000 0.000000 0.000000 0.000000 10.000000 
Rope4_Seg06 0.000000 0.000000 0.000000 0.000000 0.000000 0.000000 10.000000 
Rope4_Seg07 0.000000 0.000000 0.000000 0.000000 0.000000 0.000000 10.000000 
Rope4_Seg08 0.000000 0.000000 0.000000 0.000000 0.000000 0.000000 10.000000 
Rope4_Seg09 0.000000 0.000000 0.000000 0.000000 0.000000 0.000000 10.000000 
L_rear_hand01 0.000000 0.000000 0.000000 0.000000 0.000000 0.000000 10.000000 
L_rear_hand02 0.000000 0.000000 0.000000 0.000000 0.000000 0.000000 10.000000 
L_rear_hand03 0.000000 0.000000 0.000000 0.000000 0.000000 0.000000 10.000000 
#Beginning of Data. Separated by tabs
#Fr	Tx	Ty	Tz	Rx	Ry	Rz	SF
[MASTER]
57 -0.000405 2729.039063 0.000000 0.001660 0.001660 0.001660 2729.039063
58 -0.000418 2808.378174 0.000000 0.001660 0.001660 0.001660 2808.378174
[root]
57 -520.511658 181.245728 959.448730 -95.743896 -33.765392 -93.071220 1106.491943
58 -565.763855 181.245728 1005.269775 -93.383057 -33.777847 -93.059265 1167.692627
[chest]
57 -84.512650 -34.090519 0.000000 -4.343646 2.538988 179.515900 91.129311
58 -84.512650 -34.090519 0.000000 -4.420603 2.705225 179.854294 91.129311
[L_mid_tent01]
57 27.702225 21.946609 -252.505630 -33.066765 52.552887 28.824293 254.966980
58 27.698536 21.948719 -252.481995 -32.935539 52.581177 28.962683 254.943359
[R_mid_tent01]
57 23.228794 24.509907 226.238495 -151.215912 -39.471184 37.976795 228.744751
58 23.228794 24.509907 226.238495 -143.747910 -40.511723 33.776245 228.744751
[spine01]
57 -0.361383 -0.195265 0.000000 0.001869 0.001420 15.534141 0.410763
58 -0.361383 -0.195265 0.000000 0.001869 0.001420 15.534135 0.410763
[Bip01_Neck]
57 165.484543 71.581718 0.000119 175.896118 1.177290 24.871180 180.302734
58 165.484543 71.581718 0.000119 175.896118 1.177290 24.871183 180.302734
[L_humerus]
57 -13.983130 -135.272980 -120.471481 -178.239395 46.755871 -59.184650 181.680161
58 -13.983130 -135.272980 -120.471481 -178.469299 47.095547 -59.346237 181.680161
[R_humerus]
57 -13.983309 -135.273102 125.287651 173.691772 -43.666965 -57.719151 184.909012
58 -13.983309 -135.273102 125.287651 173.954742 -43.791935 -57.867378 184.909012
[weapon_bone]
57 235.964890 -300.705902 0.000000 0.000000 -89.951546 -128.212341 382.234833
58 235.964890 -300.705902 0.000000 0.000000 -89.951546 -128.212341 382.234833
[Bip01_Head]
57 161.933487 107.190529 27.306610 -8.974064 -2.427115 -61.257221 196.106888
58 162.319733 108.440987 27.113523 -7.744891 -1.448750 -61.384556 197.084457
[eye_left_bone]
57 -24.626970 125.451866 -64.772606 0.000000 -90.000000 -99.840431 143.318359
58 -24.626970 125.451866 -64.772606 0.000000 -90.000000 -99.840431 143.318359
[eye_right_bone]
57 -24.626970 125.451866 64.327362 0.000000 -89.960434 80.159386 143.117676
58 -24.626970 125.451866 64.327362 0.000000 -89.960434 80.159386 143.117676
[L_forearm]
57 322.776093 0.000000 -0.000119 0.000186 -0.002340 -99.110840 322.776093
58 322.776093 0.000000 -0.000119 0.000171 -0.002341 -98.348335 322.776093
[L_front_hand]
57 241.149185 -0.042021 -3.300071 -178.667953 -1.835447 -27.422350 241.171753
58 241.149185 -0.042021 -3.300071 -178.667953 -1.835447 -27.422342 241.171753
[L_weapon_bone]
57 156.183838 0.000000 0.000000 0.000014 0.000007 0.000001 156.183838
58 156.183838 0.000000 0.000000 0.000014 0.000007 0.000001 156.183838
[L_front_hand01_01]
57 86.095154 20.947098 -0.655860 -0.366594 -0.477154 75.385574 88.609184
58 86.095154 20.947098 -0.655860 -0.366594 -0.477154 75.385574 88.609184
[L_front_hand02_01]
57 86.935165 -11.437475 24.513514 154.403519 -59.888931 -61.371990 91.046425
58 86.935165 -11.437475 24.513514 154.403488 -59.888916 -61.371967 91.046425
[L_front_hand03_01]
57 86.637497 -14.123976 -20.424902 -153.913849 58.118107 -62.702866 90.126129
58 86.637497 -14.123976 -20.424902 -153.913849 58.118122 -62.702866 90.126129
[L_front_hand01_02]
57 71.020905 -0.000179 0.000030 0.000334 -0.002323 -106.379684 71.020905
58 71.020905 -0.000179 0.000030 0.000334 -0.002323 -106.379684 71.020905
[L_front_hand02_02]
57 71.020927 -0.000119 0.000060 0.000334 -0.002323 -106.379684 71.020927
58 71.020927 -0.000119 0.000060 0.000334 -0.002323 -106.379684 71.020927
[L_front_hand03_02]
57 71.020905 -0.000060 0.000060 0.000334 -0.002323 -106.379684 71.020905
58 71.020905 -0.000060 0.000060 0.000334 -0.002323 -106.379684 71.020905
[R_forearm]
57 322.776428 -0.000060 0.000030 0.210700 -0.023524 -84.500130 322.776428
58 322.776428 -0.000060 0.000030 0.211424 -0.025336 -84.014046 322.776428
[R_front_hand]
57 238.847015 -0.006795 2.210259 -1.531694 0.790216 -51.443062 238.857239
58 238.847015 -0.006795 2.210259 -1.531693 0.790216 -51.443043 238.857239
[R_weapon_bone]
57 155.664093 0.002503 -0.000030 0.003487 0.001180 -90.988930 155.664078
58 155.664093 0.002503 -0.000030 0.003487 0.001180 -90.988930 155.664078
[R_front_hand01_01]
57 87.624611 14.231146 22.918642 -154.633484 -59.950619 61.746037 91.683487
58 87.624611 14.231146 22.918642 -154.633484 -59.950607 61.746033 91.683487
[R_front_hand02_01]
57 89.356956 14.367283 -19.491137 154.602661 58.302856 63.744389 92.579636
58 89.356956 14.367283 -19.491137 154.602661 58.302856 63.744389 92.579636
[R_front_hand03_01]
57 87.286232 -22.307278 -0.143439 0.162155 -0.423168 -75.767906 90.091743
58 87.286232 -22.307278 -0.143439 0.162155 -0.423168 -75.767906 90.091743
[R_front_hand01_02]
57 71.020905 0.000060 0.000119 0.002323 -0.000334 106.381706 71.020905
58 71.020905 0.000060 0.000119 0.002323 -0.000334 106.381714 71.020905
[R_front_hand02_02]
57 71.020844 -0.000030 -0.000119 0.002323 -0.000334 106.381706 71.020836
58 71.020844 -0.000030 -0.000119 0.002323 -0.000334 106.381714 71.020836
[R_front_hand03_02]
57 71.020905 0.000000 0.000030 0.002323 -0.000334 106.381706 71.020905
58 71.020905 0.000000 0.000030 0.002323 -0.000334 106.381714 71.020905
[null_rope01_connect]
57 328.732483 0.000000 -0.000238 -124.735413 -22.765491 -156.896805 328.732483
58 328.732483 0.000000 -0.000238 -124.221977 -24.997759 -157.938828 328.732483
[Rope1_Seg01]
57 3.829648 -6.578675 -2.442095 52.323311 8.807377 -121.279816 7.994310
58 4.015347 -6.515198 -2.332307 20.925539 8.961254 -111.287437 8.000655
[Rope1_Seg02]
57 139.999863 -0.000179 0.000000 18.291193 -7.086810 -1.777968 139.999863
58 139.999863 -0.000179 0.000000 19.112280 -4.296780 -4.376200 139.999863
[Rope1_Seg03]
57 139.999924 0.000060 -0.000060 20.087521 -19.302746 1.467087 139.999924
58 139.999924 0.000060 -0.000060 33.740654 -14.047009 -7.160539 139.999924
[Rope1_Seg04]
57 139.999924 -0.000060 -0.000119 -8.196892 -46.833256 36.240913 139.999924
58 139.999924 -0.000060 -0.000119 13.736678 -55.840759 14.999673 139.999924
[Rope1_Seg05]
57 139.999832 0.000119 -0.000060 -6.311018 -24.375935 19.177488 139.999832
58 139.999832 0.000119 -0.000060 -7.415804 -30.558233 21.901367 139.999832
[Rope1_Seg06]
57 139.999954 0.000119 -0.000060 -8.510914 -15.239494 1.692659 139.999954
58 139.999954 0.000119 -0.000060 -6.623768 -15.423457 2.454339 139.999954
[Rope1_Seg07]
57 139.999985 0.000060 0.000000 -20.630188 -21.366913 -5.975617 139.999985
58 139.999985 0.000060 0.000000 -19.361235 -24.197378 -4.278351 139.999985
[Rope1_Seg09]
57 121.602913 0.000119 -0.000089 -89.793175 -1.359789 0.847147 121.602913
58 121.602913 0.000119 -0.000089 -89.793175 -1.359789 0.847147 121.602913
[L_mid_hand01]
57 103.859421 1.038730 8.195221 116.294914 -23.111713 -31.758034 104.187431
58 103.859421 1.038730 8.195221 116.294914 -23.111715 -31.758034 104.187431
[L_mid_hand02]
57 105.572853 -4.139662 -10.864139 -144.219833 17.447468 -35.360519 106.211075
58 105.572853 -4.139662 -10.864139 -144.219833 17.447470 -35.360519 106.211075
[L_mid_hand03]
57 104.641464 17.579376 -3.913581 -17.830778 17.153103 31.982925 106.179977
58 104.641464 17.579376 -3.913581 -17.830778 17.153103 31.982925 106.179977
[null_rope02_connect]
57 328.732849 0.000179 -0.000119 -136.383896 50.366825 -31.980516 328.732849
58 328.732849 0.000179 -0.000119 -140.178421 43.169666 -37.207573 328.732849
[Rope2_Seg01]
57 0.000048 0.000323 0.000057 110.593376 20.093832 -76.606842 0.000332
58 0.000047 0.000327 0.000058 83.615891 3.508969 -71.569267 0.000335
[Rope2_Seg02]
57 139.999741 -0.000060 -0.000119 5.560468 0.005230 -3.643006 139.999756
58 139.999741 -0.000060 -0.000119 4.017164 2.490123 -3.609207 139.999756
[Rope2_Seg03]
57 140.000107 0.000030 0.000000 10.839876 -0.608476 -6.358600 140.000107
58 140.000107 0.000030 0.000000 11.965711 4.419717 -7.523547 140.000107
[Rope2_Seg04]
57 139.999802 0.000000 -0.000060 26.819134 -4.143280 -14.407221 139.999802
58 139.999802 0.000000 -0.000060 84.352196 10.184870 -28.713713 139.999802
[Rope2_Seg05]
57 139.999985 -0.000060 0.000119 54.195782 -28.408243 -43.895493 139.999985
58 139.999985 -0.000060 0.000119 47.458660 -48.616356 -32.203953 139.999985
[Rope2_Seg06]
57 139.999893 -0.000030 -0.000119 2.925701 -35.520687 -0.696747 139.999893
58 139.999893 -0.000030 -0.000119 -3.275098 -24.915438 13.913085 139.999893
[Rope2_Seg07]
57 139.999893 0.000060 -0.000060 -2.842887 -25.930882 13.603630 139.999893
58 139.999893 0.000060 -0.000060 -1.065985 -26.560783 21.841068 139.999893
[Rope2_Seg09]
57 121.338966 0.000089 -0.000060 33.793236 -1.359788 -0.847141 121.338966
58 121.338966 0.000089 -0.000060 33.793236 -1.359788 -0.847141 121.338966
[R_mid_hand01]
57 104.680779 11.144459 -10.335981 -41.523792 25.424656 28.595957 105.778534
58 104.680779 11.144459 -10.335981 -41.523792 25.424656 28.595957 105.778534
[R_mid_hand02]
57 104.070427 2.443552 8.231699 72.847389 -32.746803 10.013901 104.424065
58 104.070427 2.443552 8.231699 72.847389 -32.746803 10.013901 104.424065
[R_mid_hand03]
57 106.028137 -11.221827 -5.996406 -167.901306 10.259192 -37.009720 106.788818
58 106.028137 -11.221827 -5.996406 -167.901306 10.259192 -37.009720 106.788818
[spine02]
57 129.756927 0.001550 0.000119 -0.245322 -4.052059 -4.355546 129.756927
58 129.756927 0.001550 0.000119 -0.245322 -4.052060 -4.355547 129.756927
[spine03]
57 78.614052 0.087280 -4.898816 0.369658 4.260732 -4.885719 78.766579
58 78.614052 0.087280 -4.898816 0.369658 4.260732 -4.885719 78.766579
[pelvis]
57 169.435242 0.051022 0.000000 -0.010007 -0.191417 -1.897553 169.435257
58 169.435242 0.051022 0.000000 -0.010007 -0.191417 -1.897554 169.435257
[null_rope03_connect]
57 -1.257226 -2.466202 137.391083 -125.867561 -82.531296 -114.870750 137.418976
58 -1.257226 -2.466202 137.391083 -116.899605 -84.685661 -123.776321 137.418976
[null_rope04_connect]
57 -1.259640 -2.480268 -137.844437 -125.867561 -82.531296 -114.870750 137.872513
58 -1.259640 -2.480268 -137.844437 -116.899605 -84.685661 -123.776321 137.872513
[Rope3_Seg01]
57 -0.000006 0.000228 -0.000114 -150.840500 -59.318356 -63.152367 0.000255
58 -0.000006 0.000232 -0.000116 -134.761047 -52.324379 -80.314354 0.000259
[Rope3_Seg02]
57 139.999924 -0.000119 0.000060 -1.716352 2.206795 -4.128510 139.999924
58 139.999924 -0.000119 0.000060 -0.870536 1.904758 -4.228190 139.999924
[Rope3_Seg03]
57 139.999924 -0.000119 0.000119 -3.300201 3.691020 -6.474061 139.999924
58 139.999924 -0.000119 0.000119 -1.955969 3.209566 -6.880942 139.999924
[Rope3_Seg04]
57 139.999924 0.000119 0.000000 -7.772817 7.258693 -11.366240 139.999924
58 139.999924 0.000119 0.000000 -5.678173 6.481712 -12.973116 139.999924
[Rope3_Seg05]
57 139.999924 -0.000238 0.000060 -26.051094 20.320736 -25.637707 139.999924
58 139.999924 -0.000238 0.000060 -25.258036 18.451599 -31.688082 139.999924
[Rope3_Seg06]
57 139.999893 -0.000119 -0.000060 -18.177687 22.462416 -13.279366 139.999893
58 139.999893 -0.000119 -0.000060 -20.731592 20.989321 -17.824310 139.999893
[Rope3_Seg07]
57 139.999771 0.000060 -0.000119 -2.953615 5.726120 -2.632925 139.999771
58 139.999771 0.000060 -0.000119 -4.522451 6.799942 -4.036087 139.999771
[Rope3_Seg08]
57 139.999985 -0.000060 0.000000 -2.974592 6.716576 -2.244577 139.999985
58 139.999985 -0.000060 0.000000 -4.550801 7.865907 -3.511775 139.999985
[Rope3_Seg09]
57 90.185997 -0.000179 -0.000060 89.793228 -1.359877 -0.847183 90.185997
58 90.185997 -0.000179 -0.000060 89.793228 -1.359877 -0.847183 90.185997
[R_rear_hand01]
57 103.366196 -6.073594 -10.757982 -158.627975 33.644119 -23.327248 104.101845
58 103.366196 -6.073594 -10.757982 -158.627991 33.644138 -23.327261 104.101845
[R_rear_hand02]
57 100.509819 12.039542 -7.992327 -36.327797 26.496241 23.332451 101.543350
58 100.509819 12.039542 -7.992327 -36.327797 26.496246 23.332455 101.543350
[R_rear_hand03]
57 101.539970 5.215704 5.435467 73.054977 -27.152536 27.950705 101.819031
58 101.539970 5.215704 5.435467 73.054993 -27.152544 27.950710 101.819031
[Rope4_Seg01]
57 -0.000031 0.000024 0.000096 75.724358 -44.164272 -136.974640 0.000103
58 -0.000031 0.000024 0.000095 64.160561 -43.755295 -121.859741 0.000102
[Rope4_Seg02]
57 139.999985 0.000060 0.000119 3.416639 -12.874322 -3.386724 139.999985
58 139.999985 0.000060 0.000119 1.646075 -12.762203 -4.901953 139.999985
[Rope4_Seg03]
57 139.999924 0.000000 -0.000238 11.717334 -18.494967 -3.765973 139.999924
58 139.999924 0.000000 -0.000238 5.715742 -20.083363 -7.355593 139.999924
[Rope4_Seg04]
57 139.999985 0.000000 0.000119 52.037670 -18.884583 2.428682 139.999985
58 139.999985 0.000000 0.000119 36.529049 -22.168087 -3.943108 139.999985
[Rope4_Seg05]
57 139.999802 -0.000060 -0.000119 57.554516 -10.378935 11.449608 139.999802
58 139.999802 -0.000060 -0.000119 92.990372 -15.532400 4.913616 139.999802
[Rope4_Seg06]
57 139.999924 0.000000 0.000060 34.134533 0.597215 22.473495 139.999924
58 139.999924 0.000000 0.000060 37.841511 3.683465 24.271357 139.999924
[Rope4_Seg07]
57 139.999802 0.000000 0.000000 10.842511 12.267737 17.579090 139.999802
58 139.999802 0.000000 0.000000 9.342672 17.792339 18.129230 139.999802
[Rope4_Seg08]
57 139.999924 0.000000 0.000119 0.796926 7.945800 7.434237 139.999924
58 139.999924 0.000000 0.000119 0.064695 9.771070 7.070086 139.999924
[Rope4_Seg09]
57 90.185791 0.000060 0.000060 -135.617828 2.228885 0.850567 90.185791
58 90.185791 0.000060 0.000060 -135.617828 2.228885 0.850567 90.185791
[L_rear_hand01]
57 101.696655 -8.392275 -7.654577 -33.685818 -15.212530 149.017090 102.329041
58 101.696655 -8.392275 -7.654577 -33.685818 -15.212530 149.017090 102.329041
[L_rear_hand02]
57 102.726799 -1.568258 5.773216 83.407906 30.330435 172.796509 102.900848
58 102.726799 -1.568258 5.773216 83.407906 30.330435 172.796509 102.900848
[L_rear_hand03]
57 104.552910 9.721220 -10.420293 -160.801239 -15.606593 -150.211823 105.519653
58 104.552910 9.721220 -10.420293 -160.801239 -15.606593 -150.211823 105.519653
